<?xml version="1.0" encoding="utf-8"?>
<!-- Generator: Adobe Illustrator 22.0.1, SVG Export Plug-In . SVG Version: 6.00 Build 0)  -->
<svg version="1.1" id="Ebene_2" xmlns="http://www.w3.org/2000/svg" xmlns:xlink="http://www.w3.org/1999/xlink" x="0px" y="0px"
	 viewBox="0 0 464 219" style="enable-background:new 0 0 464 219;" xml:space="preserve">
<style type="text/css">
	.st0{fill:#12100B;}
	.st1{fill:#00B9EC;}
	.st2{fill:#E53328;}
	.st3{fill:#004C98;}
</style>
<g>
	<path class="st0" d="M57.7,178.1c0,0.8-0.1,1.6-0.3,2.4c-0.2,0.8-0.4,1.5-0.8,2.2c-0.4,0.7-0.9,1.3-1.4,1.8
		c-0.6,0.5-1.3,0.9-2.1,1.2v0.3c0.7,0.2,1.4,0.5,2.1,0.8c0.7,0.4,1.2,0.9,1.7,1.5c0.5,0.6,0.9,1.4,1.2,2.3c0.3,0.9,0.4,2,0.4,3.2
		c0,1.7-0.3,3.1-0.9,4.3c-0.6,1.2-1.3,2.2-2.3,3c-1,0.8-2.1,1.3-3.4,1.7c-1.3,0.4-2.7,0.6-4.1,0.6c-0.4,0-1,0-1.7,0
		c-0.7,0-1.4,0-2.2-0.1c-0.8,0-1.6-0.1-2.4-0.2s-1.6-0.2-2.3-0.4v-31.7c1-0.2,2.3-0.3,3.7-0.5c1.5-0.1,3-0.2,4.4-0.2
		c1.3,0,2.6,0.1,3.9,0.3s2.3,0.6,3.3,1.2c0.9,0.6,1.7,1.4,2.2,2.4C57.4,175.2,57.7,176.5,57.7,178.1z M46.4,184.3
		c0.3,0,0.7,0,1.2-0.1c0.4,0,0.8-0.1,1.1-0.2c0.9-0.3,1.6-0.9,2.3-1.7c0.6-0.8,0.9-1.8,0.9-3c0-0.8-0.1-1.5-0.3-2
		c-0.2-0.6-0.5-1-0.9-1.3s-0.8-0.6-1.3-0.7c-0.5-0.1-1.1-0.2-1.6-0.2c-1.3,0-2.1,0.1-2.7,0.2v8.9H46.4z M48,198.3
		c1.3,0,2.3-0.4,3.2-1.2s1.2-2,1.2-3.6c0-1-0.1-1.8-0.4-2.4c-0.3-0.6-0.6-1.1-1.1-1.4c-0.5-0.3-1-0.5-1.6-0.6
		c-0.6-0.1-1.2-0.1-1.9-0.1h-2.3v9.2c0.2,0.1,0.7,0.2,1.3,0.2C46.9,198.3,47.5,198.3,48,198.3z"/>
	<path class="st0" d="M61.8,181.2c0.9-0.6,2.1-1,3.5-1.3c1.4-0.3,2.9-0.5,4.7-0.5c2.6,0,4.4,0.7,5.5,2c1,1.3,1.5,3.3,1.5,5.8
		c0,1.4,0,2.9-0.1,4.3c-0.1,1.4-0.1,2.8-0.2,4.1c0,1.3,0,2.6,0.1,3.9c0.1,1.2,0.3,2.4,0.6,3.5h-4.5l-0.9-2.8h-0.2
		c-0.5,0.9-1.2,1.6-2.1,2.2c-0.9,0.6-2,0.9-3.4,0.9c-1.8,0-3.2-0.6-4.3-1.8c-1-1.2-1.6-2.8-1.6-4.9c0-2.8,1-4.7,2.9-5.9
		c2-1.2,4.6-1.7,8-1.5c0.2-1.8,0-3.1-0.3-3.9c-0.4-0.8-1.2-1.2-2.5-1.2c-0.9,0-1.9,0.1-2.9,0.3c-1,0.2-1.9,0.5-2.6,0.9L61.8,181.2z
		 M68.3,198.5c0.8,0,1.5-0.2,2-0.6c0.5-0.4,0.9-0.9,1.1-1.4v-3.8c-0.7-0.1-1.4-0.1-2,0s-1.2,0.2-1.7,0.4c-0.5,0.2-0.9,0.5-1.2,0.9
		c-0.3,0.4-0.4,0.9-0.4,1.6c0,1,0.2,1.7,0.6,2.2C67.1,198.3,67.7,198.5,68.3,198.5z"/>
	<path class="st0" d="M88.1,192.8l0.6,3.6h0.2l0.4-3.6l2.7-12.9h5.6l-5.8,20.7c-0.5,1.8-1,3.4-1.5,4.9c-0.5,1.4-1,2.7-1.5,3.7
		c-0.5,1-1.1,1.8-1.8,2.3c-0.7,0.5-1.4,0.8-2.4,0.8c-0.6,0-1.3-0.1-1.9-0.2s-1.1-0.3-1.5-0.5l0.9-4.7c0.4,0.2,0.8,0.2,1.2,0.2
		c0.4,0,0.8-0.2,1.1-0.5c0.4-0.3,0.7-0.8,0.9-1.4c0.3-0.6,0.5-1.4,0.7-2.5l-8-23h6.6L88.1,192.8z"/>
	<path class="st0" d="M99.2,170.7h16.1v5.3H105v8.4h9.5v5.3H105v13.2h-5.8V170.7z"/>
	<path class="st0" d="M129.2,185.3c-0.7-0.3-1.4-0.4-2-0.4c-0.8,0-1.5,0.2-2.1,0.7c-0.6,0.5-1,1.1-1.2,1.9v15.4h-5.5v-23h4.2
		l0.6,2.8h0.2c0.4-1,1-1.8,1.7-2.4c0.8-0.6,1.6-0.9,2.6-0.9c0.7,0,1.5,0.2,2.2,0.5L129.2,185.3z"/>
	<path class="st0" d="M131.9,181.2c0.9-0.6,2.1-1,3.5-1.3c1.4-0.3,2.9-0.5,4.7-0.5c2.6,0,4.4,0.7,5.5,2c1,1.3,1.5,3.3,1.5,5.8
		c0,1.4,0,2.9-0.1,4.3c-0.1,1.4-0.1,2.8-0.2,4.1c0,1.3,0,2.6,0.1,3.9c0.1,1.2,0.3,2.4,0.6,3.5H143l-0.9-2.8h-0.2
		c-0.5,0.9-1.2,1.6-2.1,2.2c-0.9,0.6-2,0.9-3.4,0.9c-1.8,0-3.2-0.6-4.3-1.8c-1-1.2-1.6-2.8-1.6-4.9c0-2.8,1-4.7,2.9-5.9
		c2-1.2,4.6-1.7,8-1.5c0.2-1.8,0-3.1-0.3-3.9c-0.4-0.8-1.2-1.2-2.5-1.2c-0.9,0-1.9,0.1-2.9,0.3c-1,0.2-1.9,0.5-2.6,0.9L131.9,181.2z
		 M138.5,198.5c0.8,0,1.5-0.2,2-0.6c0.5-0.4,0.9-0.9,1.1-1.4v-3.8c-0.7-0.1-1.4-0.1-2,0s-1.2,0.2-1.7,0.4c-0.5,0.2-0.9,0.5-1.2,0.9
		c-0.3,0.4-0.4,0.9-0.4,1.6c0,1,0.2,1.7,0.6,2.2C137.3,198.3,137.8,198.5,138.5,198.5z"/>
	<path class="st0" d="M162.3,202.9v-14c0-1.7-0.2-2.9-0.6-3.5c-0.4-0.7-1.1-1-2-1c-0.8,0-1.5,0.2-2.1,0.7s-1,1.1-1.2,1.8v16h-5.5
		v-23h4.4l0.6,2.7h0.1c0.6-0.9,1.3-1.6,2.3-2.3c1-0.6,2.2-0.9,3.7-0.9c0.9,0,1.7,0.1,2.5,0.4c0.7,0.3,1.3,0.7,1.8,1.4
		c0.5,0.6,0.9,1.5,1.1,2.5c0.2,1.1,0.4,2.4,0.4,3.9v15.3H162.3z"/>
	<path class="st0" d="M185.1,201.6c-0.8,0.6-1.7,1.1-2.8,1.4c-1.1,0.3-2.1,0.5-3.2,0.5c-1.6,0-2.9-0.3-3.9-0.9
		c-1.1-0.6-1.9-1.4-2.6-2.4c-0.7-1.1-1.2-2.3-1.4-3.8c-0.3-1.5-0.4-3.2-0.4-5c0-4,0.7-7,2.2-9.1c1.4-2,3.6-3,6.3-3
		c1.4,0,2.5,0.1,3.4,0.4c0.9,0.2,1.6,0.6,2.3,0.9l-1.3,4.6c-0.6-0.3-1.1-0.5-1.6-0.6c-0.5-0.1-1.1-0.2-1.8-0.2
		c-1.3,0-2.3,0.6-2.9,1.7c-0.6,1.1-1,2.9-1,5.4c0,2.1,0.3,3.8,1,5.1c0.7,1.3,1.7,2,3.2,2c0.8,0,1.4-0.1,2-0.3c0.5-0.2,1-0.5,1.5-0.8
		L185.1,201.6z"/>
</g>
<g>
	<path class="st0" d="M202.6,201.2c-0.8,0.7-1.8,1.2-3.1,1.7c-1.3,0.4-2.7,0.6-4.1,0.6c-1.6,0-3-0.3-4.1-0.8
		c-1.1-0.6-2.1-1.3-2.8-2.4c-0.7-1-1.3-2.3-1.6-3.8c-0.4-1.5-0.5-3.2-0.5-5.1c0-4.1,0.8-7.2,2.5-9.2c1.6-2,3.9-3,6.8-3
		c1,0,1.9,0.1,2.9,0.4c0.9,0.3,1.7,0.8,2.5,1.5c0.7,0.7,1.3,1.6,1.7,2.8c0.4,1.2,0.7,2.6,0.7,4.3c0,0.7,0,1.4-0.1,2.2
		c-0.1,0.8-0.2,1.6-0.3,2.5h-11.3c0.1,1.9,0.5,3.4,1.2,4.4s1.9,1.5,3.6,1.5c1,0,1.9-0.2,2.7-0.5c0.8-0.3,1.4-0.6,1.9-1L202.6,201.2z
		 M195.4,183.9c-1.2,0-2.1,0.5-2.7,1.4s-0.9,2.2-1,3.9h6.4c0.1-1.7-0.1-3.1-0.6-4C197.1,184.4,196.4,183.9,195.4,183.9z"/>
</g>
<polygon class="st1" points="33.3,15 66.9,58.6 125.7,58.6 87.6,15 33.3,15 "/>
<polyline class="st1" points="196.7,145.8 171.5,116.8 171.5,145.8 "/>
<polyline class="st2" points="171.5,145.8 171.5,116.8 171.5,58.6 125.7,58.6 125.7,145.8 "/>
<polyline class="st1" points="171.5,102.2 158.9,102.2 125.7,58.6 171.5,58.6 "/>
<polygon class="st1" points="12,58.6 36.6,90.5 36.6,58.6 12,58.6 "/>
<polygon class="st1" points="104.4,102.1 78.5,72 78.5,102.1 104.4,102.1 "/>
<polygon class="st3" points="78.5,72 78.5,58.6 67,58.6 36.6,58.6 36.6,90.5 36.6,102.2 45.6,102.2 78.5,140.1 78.5,102.1 78.5,72 
	"/>
<polygon class="st1" points="36.6,102.2 36.6,145.8 78.5,145.8 78.5,140.1 45.6,102.2 36.6,102.2 "/>
<g>
	<path class="st0" d="M232.3,61.4c0,0.3,0,0.6-0.1,0.9c-0.1,0.3-0.2,0.6-0.3,0.9c-0.1,0.3-0.3,0.5-0.6,0.7c-0.2,0.2-0.5,0.4-0.8,0.5
		v0.1c0.3,0.1,0.6,0.2,0.8,0.3c0.3,0.1,0.5,0.3,0.7,0.6c0.2,0.2,0.3,0.5,0.5,0.9c0.1,0.4,0.2,0.8,0.2,1.3c0,0.6-0.1,1.2-0.3,1.7
		c-0.2,0.5-0.5,0.9-0.9,1.2c-0.4,0.3-0.8,0.5-1.3,0.7s-1,0.2-1.6,0.2c-0.2,0-0.4,0-0.6,0s-0.5,0-0.9,0c-0.3,0-0.6,0-0.9-0.1
		c-0.3,0-0.6-0.1-0.9-0.2V58.6c0.4-0.1,0.9-0.1,1.5-0.2c0.6-0.1,1.2-0.1,1.7-0.1c0.5,0,1,0,1.5,0.1s0.9,0.2,1.3,0.5
		c0.4,0.2,0.7,0.5,0.9,0.9C232.2,60.2,232.3,60.7,232.3,61.4z M227.9,63.8c0.1,0,0.3,0,0.5,0c0.2,0,0.3,0,0.4-0.1
		c0.3-0.1,0.6-0.3,0.9-0.6c0.2-0.3,0.4-0.7,0.4-1.2c0-0.3,0-0.6-0.1-0.8c-0.1-0.2-0.2-0.4-0.3-0.5c-0.1-0.1-0.3-0.2-0.5-0.3
		c-0.2-0.1-0.4-0.1-0.6-0.1c-0.5,0-0.8,0-1,0.1v3.5H227.9z M228.5,69.3c0.5,0,0.9-0.2,1.2-0.5c0.3-0.3,0.5-0.8,0.5-1.4
		c0-0.4-0.1-0.7-0.2-0.9c-0.1-0.2-0.3-0.4-0.4-0.5c-0.2-0.1-0.4-0.2-0.6-0.2c-0.2,0-0.5-0.1-0.7-0.1h-0.9v3.6c0.1,0,0.3,0.1,0.5,0.1
		C228.1,69.3,228.3,69.3,228.5,69.3z"/>
	<path class="st0" d="M239,68.2h-3l-0.7,2.9h-2.3l3.7-12.7h1.8l3.7,12.7h-2.4L239,68.2z M236.5,66.3h2.1l-0.7-2.9l-0.3-2h-0.1
		l-0.3,2L236.5,66.3z"/>
</g>
<g>
	<path class="st0" d="M244.1,66.4l-3.4-7.9h2.7l1.7,4.8l0.2,1.4h0.1l0.2-1.4l1.7-4.7h2.4l-3.4,7.9v4.7h-2.3V66.4z"/>
	<path class="st0" d="M250.5,58.5h6.3v2.1h-4v3.1h3.7v2.1h-3.7V69h4.1v2.1h-6.4V58.5z"/>
	<path class="st0" d="M258.2,58.6c0.5-0.1,1-0.2,1.6-0.2c0.6,0,1.1-0.1,1.5-0.1c0.5,0,1,0.1,1.5,0.2c0.5,0.1,0.9,0.3,1.3,0.6
		s0.7,0.6,0.9,1.1c0.2,0.5,0.4,1,0.4,1.8c0,1-0.2,1.9-0.6,2.5c-0.4,0.6-0.9,1.1-1.6,1.3l0.7,0.6l2.3,4.8h-2.6l-2.2-5l-1-0.2v5.2
		h-2.3V58.6z M260.5,64.3h0.8c0.6,0,1-0.2,1.3-0.5c0.3-0.3,0.4-0.9,0.4-1.6c0-0.5-0.1-1-0.4-1.3c-0.2-0.3-0.6-0.5-1.1-0.5
		c-0.2,0-0.4,0-0.6,0c-0.2,0-0.3,0-0.4,0.1V64.3z"/>
	<path class="st0" d="M267.5,58.5h2.3v12.6h-2.3V58.5z"/>
	<path class="st0" d="M276,67.8c0-0.4-0.1-0.7-0.3-1s-0.5-0.5-0.9-0.8c-0.3-0.2-0.7-0.5-1.1-0.7c-0.4-0.3-0.8-0.5-1.1-0.9
		s-0.6-0.7-0.9-1.2c-0.2-0.5-0.3-1-0.3-1.7c0-0.6,0.1-1.1,0.3-1.6c0.2-0.4,0.4-0.8,0.8-1c0.3-0.3,0.7-0.5,1.2-0.6
		c0.4-0.1,0.9-0.2,1.4-0.2c0.6,0,1.2,0.1,1.7,0.2s1,0.3,1.3,0.5l-0.7,2c-0.2-0.1-0.5-0.3-0.9-0.4c-0.4-0.1-0.8-0.2-1.3-0.2
		c-0.5,0-0.8,0.1-1.1,0.3c-0.3,0.2-0.4,0.5-0.4,0.8c0,0.3,0.1,0.6,0.3,0.9c0.2,0.3,0.5,0.5,0.9,0.7c0.3,0.2,0.7,0.5,1.1,0.7
		c0.4,0.3,0.8,0.6,1.1,0.9c0.3,0.3,0.6,0.7,0.9,1.2c0.2,0.5,0.3,1,0.3,1.6c0,0.6-0.1,1.2-0.3,1.7c-0.2,0.5-0.5,0.9-0.8,1.2
		c-0.3,0.3-0.8,0.5-1.2,0.7c-0.5,0.2-1,0.2-1.6,0.2c-0.7,0-1.4-0.1-2-0.2s-1-0.3-1.3-0.5l0.7-2c0.2,0.1,0.6,0.3,1,0.4
		c0.4,0.1,0.9,0.2,1.3,0.2C275.4,69.2,276,68.8,276,67.8z"/>
	<path class="st0" d="M286.6,70.6c-0.3,0.3-0.7,0.5-1.3,0.6c-0.5,0.1-1,0.2-1.6,0.2c-0.6,0-1.3-0.1-1.8-0.3c-0.6-0.2-1-0.6-1.5-1.1
		c-0.4-0.5-0.8-1.2-1-2c-0.2-0.8-0.4-1.9-0.4-3.1c0-1.3,0.1-2.3,0.4-3.2c0.3-0.8,0.6-1.5,1.1-2c0.4-0.5,0.9-0.8,1.5-1.1
		c0.6-0.2,1.1-0.3,1.7-0.3c0.6,0,1.1,0,1.5,0.1c0.4,0.1,0.8,0.2,1.1,0.3l-0.4,2c-0.2-0.1-0.5-0.2-0.8-0.3c-0.3-0.1-0.7-0.1-1.1-0.1
		c-0.8,0-1.5,0.4-1.9,1.1c-0.4,0.7-0.7,1.8-0.7,3.4c0,0.7,0.1,1.3,0.2,1.8c0.1,0.5,0.3,1,0.5,1.4c0.2,0.4,0.5,0.7,0.8,0.9
		c0.3,0.2,0.8,0.3,1.2,0.3c0.4,0,0.8-0.1,1.1-0.2c0.3-0.1,0.6-0.2,0.8-0.4L286.6,70.6z"/>
	<path class="st0" d="M293.4,65.7H290v5.3h-2.3V58.5h2.3v5.2h3.4v-5.2h2.3v12.6h-2.3V65.7z"/>
	<path class="st0" d="M297.3,64.8h3.7v2.1h-3.7V64.8z"/>
	<path class="st0" d="M302.6,58.5h6.3v2.1h-4v3.3h3.7v2.1h-3.7v5.1h-2.3V58.5z"/>
	<path class="st0" d="M310.2,58.6c0.5-0.1,1-0.2,1.6-0.2c0.6,0,1.1-0.1,1.5-0.1c0.5,0,1,0.1,1.5,0.2c0.5,0.1,0.9,0.3,1.3,0.6
		s0.7,0.6,0.9,1.1c0.2,0.5,0.4,1,0.4,1.8c0,1-0.2,1.9-0.6,2.5c-0.4,0.6-0.9,1.1-1.6,1.3l0.7,0.6l2.3,4.8h-2.6l-2.2-5l-1-0.2v5.2
		h-2.3V58.6z M312.5,64.3h0.8c0.6,0,1-0.2,1.3-0.5c0.3-0.3,0.4-0.9,0.4-1.6c0-0.5-0.1-1-0.4-1.3c-0.2-0.3-0.6-0.5-1.1-0.5
		c-0.2,0-0.4,0-0.6,0c-0.2,0-0.3,0-0.4,0.1V64.3z"/>
</g>
<g>
	<path class="st0" d="M323.8,68.2h-3l-0.7,2.9h-2.3l3.7-12.7h1.8l3.7,12.7h-2.4L323.8,68.2z M321.3,66.3h2.1l-0.7-2.9l-0.3-2h-0.1
		l-0.3,2L321.3,66.3z"/>
	<path class="st0" d="M330.5,64.9l-0.8-2.2h-0.1l0.3,2.2v6.2h-2.1V58.4h1.7l3.6,6.3l0.8,2.2h0.1l-0.3-2.1v-6.3h2.1v12.7H334
		L330.5,64.9z"/>
	<path class="st0" d="M337,69l4.2-7.7l0.8-0.7h-5v-2.1h7.3v2.1l-4.2,7.7l-0.7,0.7h5v2.1H337V69z"/>
</g>
<g>
	<path class="st0" d="M344.8,64.8c0-2.1,0.4-3.8,1.1-4.9c0.7-1.1,1.8-1.7,3.3-1.7c0.8,0,1.5,0.2,2,0.5c0.6,0.3,1,0.7,1.4,1.3
		c0.4,0.6,0.6,1.3,0.8,2.1c0.2,0.8,0.3,1.7,0.3,2.7c0,2.1-0.4,3.8-1.1,4.9c-0.8,1.1-1.9,1.7-3.3,1.7c-0.8,0-1.5-0.2-2-0.5
		c-0.6-0.3-1-0.7-1.4-1.3c-0.4-0.6-0.6-1.3-0.8-2.1C344.8,66.7,344.8,65.8,344.8,64.8z M346.4,56.7c0-0.3,0.1-0.6,0.3-0.8
		c0.2-0.2,0.5-0.3,1-0.3c0.4,0,0.7,0.1,0.9,0.3c0.2,0.2,0.3,0.4,0.3,0.8s-0.1,0.6-0.3,0.7c-0.2,0.2-0.5,0.3-0.9,0.3
		c-0.5,0-0.8-0.1-1-0.3C346.5,57.3,346.4,57,346.4,56.7z M347.1,64.8c0,0.6,0,1.2,0.1,1.8s0.2,1,0.4,1.4s0.4,0.7,0.6,0.9
		c0.3,0.2,0.6,0.3,1,0.3c0.7,0,1.2-0.4,1.6-1.1c0.3-0.7,0.5-1.8,0.5-3.4c0-0.6,0-1.2-0.1-1.7c-0.1-0.5-0.2-1-0.4-1.4
		c-0.2-0.4-0.4-0.7-0.6-1s-0.6-0.4-1-0.4C347.8,60.3,347.1,61.8,347.1,64.8z M349.6,56.7c0-0.3,0.1-0.6,0.3-0.8
		c0.2-0.2,0.5-0.3,0.9-0.3c0.4,0,0.8,0.1,0.9,0.3c0.2,0.2,0.3,0.4,0.3,0.8s-0.1,0.6-0.3,0.7c-0.2,0.2-0.5,0.3-0.9,0.3
		c-0.4,0-0.7-0.1-0.9-0.3C349.7,57.3,349.6,57,349.6,56.7z"/>
	<path class="st0" d="M359.4,67.8c0-0.4-0.1-0.7-0.3-1s-0.5-0.5-0.9-0.8c-0.3-0.2-0.7-0.5-1.1-0.7c-0.4-0.3-0.8-0.5-1.1-0.9
		s-0.6-0.7-0.9-1.2c-0.2-0.5-0.3-1-0.3-1.7c0-0.6,0.1-1.1,0.3-1.6c0.2-0.4,0.4-0.8,0.8-1c0.3-0.3,0.7-0.5,1.2-0.6
		c0.4-0.1,0.9-0.2,1.4-0.2c0.6,0,1.2,0.1,1.7,0.2s1,0.3,1.3,0.5l-0.7,2c-0.2-0.1-0.5-0.3-0.9-0.4c-0.4-0.1-0.8-0.2-1.3-0.2
		c-0.5,0-0.8,0.1-1.1,0.3c-0.3,0.2-0.4,0.5-0.4,0.8c0,0.3,0.1,0.6,0.3,0.9c0.2,0.3,0.5,0.5,0.9,0.7c0.3,0.2,0.7,0.5,1.1,0.7
		c0.4,0.3,0.8,0.6,1.1,0.9c0.3,0.3,0.6,0.7,0.9,1.2c0.2,0.5,0.3,1,0.3,1.6c0,0.6-0.1,1.2-0.3,1.7c-0.2,0.5-0.5,0.9-0.8,1.2
		c-0.3,0.3-0.8,0.5-1.2,0.7c-0.5,0.2-1,0.2-1.6,0.2c-0.7,0-1.4-0.1-2-0.2s-1-0.3-1.3-0.5l0.7-2c0.2,0.1,0.6,0.3,1,0.4
		c0.4,0.1,0.9,0.2,1.3,0.2C358.8,69.2,359.4,68.8,359.4,67.8z"/>
	<path class="st0" d="M363.1,58.5h2.3v12.6h-2.3V58.5z"/>
	<path class="st0" d="M371.6,67.8c0-0.4-0.1-0.7-0.3-1s-0.5-0.5-0.9-0.8c-0.3-0.2-0.7-0.5-1.1-0.7c-0.4-0.3-0.8-0.5-1.1-0.9
		s-0.6-0.7-0.9-1.2c-0.2-0.5-0.3-1-0.3-1.7c0-0.6,0.1-1.1,0.3-1.6c0.2-0.4,0.4-0.8,0.8-1c0.3-0.3,0.7-0.5,1.2-0.6
		c0.4-0.1,0.9-0.2,1.4-0.2c0.6,0,1.2,0.1,1.7,0.2s1,0.3,1.3,0.5l-0.7,2c-0.2-0.1-0.5-0.3-0.9-0.4c-0.4-0.1-0.8-0.2-1.3-0.2
		c-0.5,0-0.8,0.1-1.1,0.3c-0.3,0.2-0.4,0.5-0.4,0.8c0,0.3,0.1,0.6,0.3,0.9c0.2,0.3,0.5,0.5,0.9,0.7c0.3,0.2,0.7,0.5,1.1,0.7
		c0.4,0.3,0.8,0.6,1.1,0.9c0.3,0.3,0.6,0.7,0.9,1.2c0.2,0.5,0.3,1,0.3,1.6c0,0.6-0.1,1.2-0.3,1.7c-0.2,0.5-0.5,0.9-0.8,1.2
		c-0.3,0.3-0.8,0.5-1.2,0.7c-0.5,0.2-1,0.2-1.6,0.2c-0.7,0-1.4-0.1-2-0.2s-1-0.3-1.3-0.5l0.7-2c0.2,0.1,0.6,0.3,1,0.4
		c0.4,0.1,0.9,0.2,1.3,0.2C371,69.2,371.6,68.8,371.6,67.8z"/>
	<path class="st0" d="M382.2,70.6c-0.3,0.3-0.7,0.5-1.3,0.6c-0.5,0.1-1,0.2-1.6,0.2c-0.6,0-1.3-0.1-1.8-0.3c-0.6-0.2-1-0.6-1.5-1.1
		c-0.4-0.5-0.8-1.2-1-2c-0.2-0.8-0.4-1.9-0.4-3.1c0-1.3,0.1-2.3,0.4-3.2c0.3-0.8,0.6-1.5,1.1-2c0.4-0.5,0.9-0.8,1.5-1.1
		c0.6-0.2,1.1-0.3,1.7-0.3c0.6,0,1.1,0,1.5,0.1c0.4,0.1,0.8,0.2,1.1,0.3l-0.4,2c-0.2-0.1-0.5-0.2-0.8-0.3c-0.3-0.1-0.7-0.1-1.1-0.1
		c-0.8,0-1.5,0.4-1.9,1.1c-0.4,0.7-0.7,1.8-0.7,3.4c0,0.7,0.1,1.3,0.2,1.8c0.1,0.5,0.3,1,0.5,1.4c0.2,0.4,0.5,0.7,0.8,0.9
		c0.3,0.2,0.8,0.3,1.2,0.3c0.4,0,0.8-0.1,1.1-0.2c0.3-0.1,0.6-0.2,0.8-0.4L382.2,70.6z"/>
	<path class="st0" d="M389,65.7h-3.4v5.3h-2.3V58.5h2.3v5.2h3.4v-5.2h2.3v12.6H389V65.7z"/>
	<path class="st0" d="M392.9,58.5h6.3v2.1h-4v3.1h3.7v2.1h-3.7V69h4.1v2.1h-6.4V58.5z"/>
	<path class="st0" d="M405.1,67.8c0-0.4-0.1-0.7-0.3-1s-0.5-0.5-0.9-0.8c-0.3-0.2-0.7-0.5-1.1-0.7c-0.4-0.3-0.8-0.5-1.1-0.9
		s-0.6-0.7-0.9-1.2c-0.2-0.5-0.3-1-0.3-1.7c0-0.6,0.1-1.1,0.3-1.6c0.2-0.4,0.4-0.8,0.8-1c0.3-0.3,0.7-0.5,1.2-0.6
		c0.4-0.1,0.9-0.2,1.4-0.2c0.6,0,1.2,0.1,1.7,0.2s1,0.3,1.3,0.5l-0.7,2c-0.2-0.1-0.5-0.3-0.9-0.4c-0.4-0.1-0.8-0.2-1.3-0.2
		c-0.5,0-0.8,0.1-1.1,0.3c-0.3,0.2-0.4,0.5-0.4,0.8c0,0.3,0.1,0.6,0.3,0.9c0.2,0.3,0.5,0.5,0.9,0.7c0.3,0.2,0.7,0.5,1.1,0.7
		c0.4,0.3,0.8,0.6,1.1,0.9c0.3,0.3,0.6,0.7,0.9,1.2c0.2,0.5,0.3,1,0.3,1.6c0,0.6-0.1,1.2-0.3,1.7c-0.2,0.5-0.5,0.9-0.8,1.2
		c-0.3,0.3-0.8,0.5-1.2,0.7c-0.5,0.2-1,0.2-1.6,0.2c-0.7,0-1.4-0.1-2-0.2s-1-0.3-1.3-0.5l0.7-2c0.2,0.1,0.6,0.3,1,0.4
		c0.4,0.1,0.9,0.2,1.3,0.2C404.5,69.2,405.1,68.8,405.1,67.8z"/>
</g>
<g>
	<path class="st0" d="M230.8,86.1h-3.4v5.3h-2.3V78.9h2.3v5.2h3.4v-5.2h2.3v12.6h-2.3V86.1z"/>
	<path class="st0" d="M234.4,85.2c0-2.1,0.4-3.8,1.1-4.9c0.7-1.1,1.8-1.7,3.3-1.7c0.8,0,1.5,0.2,2,0.5c0.6,0.3,1,0.7,1.4,1.3
		c0.4,0.6,0.6,1.3,0.8,2.1c0.2,0.8,0.3,1.7,0.3,2.7c0,2.1-0.4,3.8-1.1,4.9c-0.8,1.1-1.9,1.7-3.3,1.7c-0.8,0-1.5-0.2-2-0.5
		c-0.6-0.3-1-0.7-1.4-1.3c-0.4-0.6-0.6-1.3-0.8-2.1C234.5,87.1,234.4,86.2,234.4,85.2z M236.8,85.2c0,0.6,0,1.2,0.1,1.8
		s0.2,1,0.4,1.4s0.4,0.7,0.6,0.9c0.3,0.2,0.6,0.3,1,0.3c0.7,0,1.2-0.4,1.6-1.1c0.3-0.7,0.5-1.8,0.5-3.4c0-0.6,0-1.2-0.1-1.7
		c-0.1-0.5-0.2-1-0.4-1.4c-0.2-0.4-0.4-0.7-0.6-1s-0.6-0.4-1-0.4C237.5,80.7,236.8,82.2,236.8,85.2z"/>
	<path class="st0" d="M251.8,91c-0.3,0.3-0.7,0.5-1.3,0.6c-0.5,0.1-1,0.2-1.6,0.2c-0.6,0-1.3-0.1-1.8-0.3c-0.6-0.2-1-0.6-1.5-1.1
		c-0.4-0.5-0.8-1.2-1-2c-0.2-0.8-0.4-1.9-0.4-3.1c0-1.3,0.1-2.3,0.4-3.2c0.3-0.8,0.6-1.5,1.1-2c0.4-0.5,0.9-0.8,1.5-1.1
		c0.6-0.2,1.1-0.3,1.7-0.3c0.6,0,1.1,0,1.5,0.1c0.4,0.1,0.8,0.2,1.1,0.3l-0.4,2c-0.2-0.1-0.5-0.2-0.8-0.3c-0.3-0.1-0.7-0.1-1.1-0.1
		c-0.8,0-1.5,0.4-1.9,1.1c-0.4,0.7-0.7,1.8-0.7,3.4c0,0.7,0.1,1.3,0.2,1.8c0.1,0.5,0.3,1,0.5,1.4c0.2,0.4,0.5,0.7,0.8,0.9
		c0.3,0.2,0.8,0.3,1.2,0.3c0.4,0,0.8-0.1,1.1-0.2c0.3-0.1,0.6-0.2,0.8-0.4L251.8,91z"/>
	<path class="st0" d="M258.6,86.1h-3.4v5.3h-2.3V78.9h2.3v5.2h3.4v-5.2h2.3v12.6h-2.3V86.1z"/>
	<path class="st0" d="M266.9,88.2c0-0.4-0.1-0.7-0.3-1s-0.5-0.5-0.9-0.8c-0.3-0.2-0.7-0.5-1.1-0.7c-0.4-0.3-0.8-0.5-1.1-0.9
		s-0.6-0.7-0.9-1.2c-0.2-0.5-0.3-1-0.3-1.7c0-0.6,0.1-1.1,0.3-1.6c0.2-0.4,0.4-0.8,0.8-1c0.3-0.3,0.7-0.5,1.2-0.6
		c0.4-0.1,0.9-0.2,1.4-0.2c0.6,0,1.2,0.1,1.7,0.2s1,0.3,1.3,0.5l-0.7,2c-0.2-0.1-0.5-0.3-0.9-0.4c-0.4-0.1-0.8-0.2-1.3-0.2
		c-0.5,0-0.8,0.1-1.1,0.3c-0.3,0.2-0.4,0.5-0.4,0.8c0,0.3,0.1,0.6,0.3,0.9c0.2,0.3,0.5,0.5,0.9,0.7c0.3,0.2,0.7,0.5,1.1,0.7
		c0.4,0.3,0.8,0.6,1.1,0.9c0.3,0.3,0.6,0.7,0.9,1.2c0.2,0.5,0.3,1,0.3,1.6c0,0.6-0.1,1.2-0.3,1.7c-0.2,0.5-0.5,0.9-0.8,1.2
		c-0.3,0.3-0.8,0.5-1.2,0.7c-0.5,0.2-1,0.2-1.6,0.2c-0.7,0-1.4-0.1-2-0.2s-1-0.3-1.3-0.5l0.7-2c0.2,0.1,0.6,0.3,1,0.4
		c0.4,0.1,0.9,0.2,1.3,0.2C266.3,89.6,266.9,89.2,266.9,88.2z"/>
	<path class="st0" d="M277.5,91c-0.3,0.3-0.7,0.5-1.3,0.6c-0.5,0.1-1,0.2-1.6,0.2c-0.6,0-1.3-0.1-1.8-0.3c-0.6-0.2-1-0.6-1.5-1.1
		c-0.4-0.5-0.8-1.2-1-2c-0.2-0.8-0.4-1.9-0.4-3.1c0-1.3,0.1-2.3,0.4-3.2c0.3-0.8,0.6-1.5,1.1-2c0.4-0.5,0.9-0.8,1.5-1.1
		c0.6-0.2,1.1-0.3,1.7-0.3c0.6,0,1.1,0,1.5,0.1c0.4,0.1,0.8,0.2,1.1,0.3l-0.4,2c-0.2-0.1-0.5-0.2-0.8-0.3c-0.3-0.1-0.7-0.1-1.1-0.1
		c-0.8,0-1.5,0.4-1.9,1.1c-0.4,0.7-0.7,1.8-0.7,3.4c0,0.7,0.1,1.3,0.2,1.8c0.1,0.5,0.3,1,0.5,1.4c0.2,0.4,0.5,0.7,0.8,0.9
		c0.3,0.2,0.8,0.3,1.2,0.3c0.4,0,0.8-0.1,1.1-0.2c0.3-0.1,0.6-0.2,0.8-0.4L277.5,91z"/>
	<path class="st0" d="M284.3,86.1h-3.4v5.3h-2.3V78.9h2.3v5.2h3.4v-5.2h2.3v12.6h-2.3V86.1z"/>
	<path class="st0" d="M293.8,78.9h2.1V87c0,1.6-0.3,2.8-1,3.5s-1.6,1.1-2.8,1.1c-1.4,0-2.4-0.4-3-1.1s-1-1.8-1-3.3v-8.5h2.3v8.1
		c0,1,0.1,1.7,0.4,2.1c0.3,0.4,0.7,0.6,1.3,0.6c0.6,0,1-0.2,1.3-0.6s0.4-1.1,0.4-2V78.9z"/>
	<path class="st0" d="M304.2,91.5h-6.7V78.9h2.3v10.5h4.4V91.5z"/>
</g>
<g>
	<path class="st0" d="M303.3,89.4l4.2-7.7l0.8-0.7h-5v-2.1h7.3V81l-4.2,7.7l-0.7,0.7h5v2.1h-7.3V89.4z"/>
	<path class="st0" d="M311.7,78.9h6.3V81h-4v3.1h3.7v2.1H314v3.2h4.1v2.1h-6.4V78.9z"/>
	<path class="st0" d="M322.2,85.3l-0.8-2.2h-0.1l0.3,2.2v6.2h-2.1V78.8h1.7l3.6,6.3l0.8,2.2h0.1l-0.3-2.1v-6.3h2.1v12.7h-1.7
		L322.2,85.3z"/>
	<path class="st0" d="M336.7,81h-3v10.5h-2.3V81h-3v-2.1h8.2V81z"/>
	<path class="st0" d="M337.7,79c0.5-0.1,1-0.2,1.6-0.2c0.6,0,1.1-0.1,1.5-0.1c0.5,0,1,0.1,1.5,0.2c0.5,0.1,0.9,0.3,1.3,0.6
		s0.7,0.6,0.9,1.1c0.2,0.5,0.4,1,0.4,1.8c0,1-0.2,1.9-0.6,2.5c-0.4,0.6-0.9,1.1-1.6,1.3l0.7,0.6l2.3,4.8h-2.6l-2.2-5l-1-0.2v5.2
		h-2.3V79z M340,84.7h0.8c0.6,0,1-0.2,1.3-0.5c0.3-0.3,0.4-0.9,0.4-1.6c0-0.5-0.1-1-0.4-1.3c-0.2-0.3-0.6-0.5-1.1-0.5
		c-0.2,0-0.4,0-0.6,0c-0.2,0-0.3,0-0.4,0.1V84.7z"/>
	<path class="st0" d="M352.3,78.9h2.1V87c0,1.6-0.3,2.8-1,3.5s-1.6,1.1-2.8,1.1c-1.4,0-2.4-0.4-3-1.1s-1-1.8-1-3.3v-8.5h2.3v8.1
		c0,1,0.1,1.7,0.4,2.1c0.3,0.4,0.7,0.6,1.3,0.6c0.6,0,1-0.2,1.3-0.6s0.4-1.1,0.4-2V78.9z"/>
	<path class="st0" d="M364.1,85l0.3-2.4h-0.1l-0.7,2.2l-2.1,4.4h-0.8l-2.2-4.4l-0.7-2.2h-0.1l0.3,2.4v6.5H356V78.9h2.2l2.6,5.5
		l0.4,1.6h0.1l0.4-1.6l2.5-5.4h2.1v12.6h-2.3V85z"/>
</g>
<g>
	<path class="st0" d="M232.3,124.9c-0.3,0.3-0.7,0.5-1.3,0.6c-0.5,0.1-1,0.2-1.6,0.2c-0.6,0-1.3-0.1-1.8-0.3c-0.6-0.2-1-0.6-1.5-1.1
		c-0.4-0.5-0.8-1.2-1-2c-0.2-0.8-0.4-1.9-0.4-3.1c0-1.3,0.1-2.3,0.4-3.2c0.3-0.8,0.6-1.5,1.1-2c0.4-0.5,0.9-0.8,1.5-1.1
		c0.6-0.2,1.1-0.3,1.7-0.3c0.6,0,1.1,0,1.5,0.1c0.4,0.1,0.8,0.2,1.1,0.3l-0.4,2c-0.2-0.1-0.5-0.2-0.8-0.3c-0.3-0.1-0.7-0.1-1.1-0.1
		c-0.8,0-1.5,0.4-1.9,1.1c-0.4,0.7-0.7,1.8-0.7,3.4c0,0.7,0.1,1.3,0.2,1.8s0.3,1,0.5,1.4c0.2,0.4,0.5,0.7,0.8,0.9s0.8,0.3,1.2,0.3
		c0.4,0,0.8-0.1,1.1-0.2c0.3-0.1,0.6-0.2,0.8-0.4L232.3,124.9z"/>
	<path class="st0" d="M233.3,112.9h6.3v2.1h-4v3.1h3.7v2.1h-3.7v3.2h4.1v2.1h-6.4V112.9z"/>
	<path class="st0" d="M243.8,119.3L243,117h-0.1l0.3,2.2v6.2h-2.1v-12.7h1.7l3.6,6.3l0.8,2.2h0.1l-0.3-2.1v-6.3h2.1v12.7h-1.7
		L243.8,119.3z"/>
	<path class="st0" d="M258.4,114.9h-3v10.5h-2.3v-10.5h-3v-2.1h8.2V114.9z"/>
	<path class="st0" d="M259.3,113c0.5-0.1,1-0.2,1.6-0.2c0.6,0,1.1-0.1,1.5-0.1c0.5,0,1,0.1,1.5,0.2c0.5,0.1,0.9,0.3,1.3,0.6
		c0.4,0.3,0.7,0.6,0.9,1.1c0.2,0.5,0.4,1,0.4,1.8c0,1-0.2,1.9-0.6,2.5c-0.4,0.6-0.9,1.1-1.6,1.3l0.7,0.6l2.3,4.8h-2.6l-2.2-5l-1-0.2
		v5.2h-2.3V113z M261.6,118.7h0.8c0.6,0,1-0.2,1.3-0.5c0.3-0.3,0.4-0.9,0.4-1.6c0-0.5-0.1-1-0.4-1.3c-0.2-0.3-0.6-0.5-1.1-0.5
		c-0.2,0-0.4,0-0.6,0c-0.2,0-0.3,0-0.4,0.1V118.7z"/>
	<path class="st0" d="M268.4,112.9h6.3v2.1h-4v3.1h3.7v2.1h-3.7v3.2h4.1v2.1h-6.4V112.9z"/>
	<path class="st0" d="M279.8,112.9c0.2,0,0.5-0.1,0.7-0.1c0.3,0,0.5,0,0.8-0.1c0.3,0,0.6,0,0.8,0c0.3,0,0.5,0,0.7,0
		c1,0,1.8,0.2,2.5,0.5s1.2,0.7,1.6,1.3c0.4,0.6,0.7,1.2,0.9,2c0.2,0.8,0.3,1.7,0.3,2.6c0,0.9-0.1,1.7-0.2,2.5
		c-0.2,0.8-0.4,1.5-0.9,2.1c-0.4,0.6-1,1.1-1.7,1.4c-0.7,0.4-1.6,0.5-2.6,0.5c-0.2,0-0.4,0-0.6,0c-0.3,0-0.5,0-0.8,0s-0.6,0-0.8-0.1
		c-0.3,0-0.5,0-0.6-0.1V112.9z M283.1,114.8c-0.2,0-0.4,0-0.6,0c-0.2,0-0.4,0-0.5,0v8.7c0,0,0.1,0,0.2,0c0.1,0,0.2,0,0.3,0
		c0.1,0,0.2,0,0.3,0c0.1,0,0.2,0,0.2,0c0.5,0,1-0.1,1.3-0.4c0.3-0.3,0.6-0.6,0.8-1c0.2-0.4,0.3-0.9,0.4-1.4c0.1-0.5,0.1-1.1,0.1-1.7
		c0-0.6,0-1.1-0.1-1.6c-0.1-0.5-0.2-1-0.4-1.4c-0.2-0.4-0.5-0.7-0.8-0.9C284.1,114.9,283.7,114.8,283.1,114.8z"/>
	<path class="st0" d="M289.4,112.9h6.3v2.1h-4v3.1h3.7v2.1h-3.7v3.2h4.1v2.1h-6.4V112.9z"/>
</g>
<g>
	<path class="st0" d="M307.8,124.9c-0.3,0.3-0.7,0.5-1.3,0.6c-0.5,0.1-1,0.2-1.6,0.2c-0.6,0-1.3-0.1-1.8-0.3c-0.6-0.2-1-0.6-1.5-1.1
		c-0.4-0.5-0.8-1.2-1-2c-0.2-0.8-0.4-1.9-0.4-3.1c0-1.3,0.1-2.3,0.4-3.2c0.3-0.8,0.6-1.5,1.1-2c0.4-0.5,0.9-0.8,1.5-1.1
		c0.6-0.2,1.1-0.3,1.7-0.3c0.6,0,1.1,0,1.5,0.1c0.4,0.1,0.8,0.2,1.1,0.3l-0.4,2c-0.2-0.1-0.5-0.2-0.8-0.3c-0.3-0.1-0.7-0.1-1.1-0.1
		c-0.8,0-1.5,0.4-1.9,1.1c-0.4,0.7-0.7,1.8-0.7,3.4c0,0.7,0.1,1.3,0.2,1.8s0.3,1,0.5,1.4c0.2,0.4,0.5,0.7,0.8,0.9s0.8,0.3,1.2,0.3
		c0.4,0,0.8-0.1,1.1-0.2c0.3-0.1,0.6-0.2,0.8-0.4L307.8,124.9z"/>
</g>
<g>
	<path class="st0" d="M308.1,119.2c0-2.1,0.4-3.8,1.1-4.9c0.7-1.1,1.8-1.7,3.3-1.7c0.8,0,1.5,0.2,2,0.5c0.6,0.3,1,0.7,1.4,1.3
		s0.6,1.3,0.8,2.1c0.2,0.8,0.3,1.7,0.3,2.7c0,2.1-0.4,3.8-1.1,4.9c-0.8,1.1-1.9,1.7-3.3,1.7c-0.8,0-1.5-0.2-2-0.5
		c-0.6-0.3-1-0.7-1.4-1.3c-0.4-0.6-0.6-1.3-0.8-2.1C308.1,121,308.1,120.1,308.1,119.2z M310.4,119.2c0,0.6,0,1.2,0.1,1.8
		s0.2,1,0.4,1.4c0.2,0.4,0.4,0.7,0.6,0.9c0.3,0.2,0.6,0.3,1,0.3c0.7,0,1.2-0.4,1.6-1.1c0.3-0.7,0.5-1.8,0.5-3.4c0-0.6,0-1.2-0.1-1.7
		c-0.1-0.5-0.2-1-0.4-1.4s-0.4-0.7-0.6-1c-0.3-0.2-0.6-0.4-1-0.4C311.1,114.7,310.4,116.2,310.4,119.2z"/>
	<path class="st0" d="M318,119.2c0-2.1,0.4-3.8,1.1-4.9c0.7-1.1,1.8-1.7,3.3-1.7c0.8,0,1.5,0.2,2,0.5c0.6,0.3,1,0.7,1.4,1.3
		s0.6,1.3,0.8,2.1c0.2,0.8,0.3,1.7,0.3,2.7c0,2.1-0.4,3.8-1.1,4.9c-0.8,1.1-1.9,1.7-3.3,1.7c-0.8,0-1.5-0.2-2-0.5
		c-0.6-0.3-1-0.7-1.4-1.3c-0.4-0.6-0.6-1.3-0.8-2.1C318.1,121,318,120.1,318,119.2z M320.4,119.2c0,0.6,0,1.2,0.1,1.8s0.2,1,0.4,1.4
		c0.2,0.4,0.4,0.7,0.6,0.9c0.3,0.2,0.6,0.3,1,0.3c0.7,0,1.2-0.4,1.6-1.1c0.3-0.7,0.5-1.8,0.5-3.4c0-0.6,0-1.2-0.1-1.7
		c-0.1-0.5-0.2-1-0.4-1.4s-0.4-0.7-0.6-1c-0.3-0.2-0.6-0.4-1-0.4C321.1,114.7,320.4,116.2,320.4,119.2z"/>
	<path class="st0" d="M328.3,113c0.4-0.1,0.9-0.2,1.4-0.2c0.5-0.1,1-0.1,1.5-0.1c0.6,0,1.1,0.1,1.6,0.2c0.5,0.1,1,0.3,1.4,0.6
		s0.8,0.7,1,1.3c0.3,0.5,0.4,1.3,0.4,2.1c0,0.8-0.1,1.5-0.3,2c-0.2,0.6-0.5,1-0.9,1.4c-0.4,0.3-0.8,0.6-1.3,0.8s-1,0.2-1.5,0.2
		c0,0-0.1,0-0.2,0c-0.1,0-0.2,0-0.3,0s-0.2,0-0.4,0c-0.1,0-0.2,0-0.2,0v4.3h-2.3V113z M330.5,119.1c0.1,0,0.2,0,0.4,0.1
		c0.2,0,0.3,0,0.4,0c0.3,0,0.5,0,0.8-0.1c0.2-0.1,0.5-0.2,0.6-0.4c0.2-0.2,0.3-0.4,0.4-0.7c0.1-0.3,0.2-0.7,0.2-1.2
		c0-0.4-0.1-0.7-0.2-1c-0.1-0.3-0.2-0.5-0.4-0.7c-0.2-0.2-0.4-0.3-0.6-0.4s-0.5-0.1-0.7-0.1c-0.4,0-0.7,0-0.9,0.1V119.1z"/>
	<path class="st0" d="M336.8,112.9h6.3v2.1h-4v3.1h3.7v2.1h-3.7v3.2h4.1v2.1h-6.4V112.9z M340.2,109.8h2.6v0.5l-2.4,1.6h-1.7
		L340.2,109.8z"/>
	<path class="st0" d="M344.6,113c0.5-0.1,1-0.2,1.6-0.2c0.6,0,1.1-0.1,1.5-0.1c0.5,0,1,0.1,1.5,0.2c0.5,0.1,0.9,0.3,1.3,0.6
		c0.4,0.3,0.7,0.6,0.9,1.1c0.2,0.5,0.4,1,0.4,1.8c0,1-0.2,1.9-0.6,2.5c-0.4,0.6-0.9,1.1-1.6,1.3l0.7,0.6l2.3,4.8H350l-2.2-5l-1-0.2
		v5.2h-2.3V113z M346.8,118.7h0.8c0.6,0,1-0.2,1.3-0.5c0.3-0.3,0.4-0.9,0.4-1.6c0-0.5-0.1-1-0.4-1.3c-0.2-0.3-0.6-0.5-1.1-0.5
		c-0.2,0-0.4,0-0.6,0c-0.2,0-0.3,0-0.4,0.1V118.7z"/>
</g>
<g>
	<path class="st0" d="M358.2,122.6h-3l-0.7,2.9h-2.3l3.7-12.7h1.8l3.7,12.7h-2.4L358.2,122.6z M355.7,120.7h2.1l-0.7-2.9l-0.3-2
		h-0.1l-0.3,2L355.7,120.7z"/>
</g>
<g>
	<path class="st0" d="M368.5,114.9h-3v10.5h-2.3v-10.5h-3v-2.1h8.2V114.9z"/>
	<path class="st0" d="M369.6,112.9h2.3v12.6h-2.3V112.9z"/>
	<path class="st0" d="M373.4,119.2c0-2.1,0.4-3.8,1.1-4.9c0.7-1.1,1.8-1.7,3.3-1.7c0.8,0,1.5,0.2,2,0.5c0.6,0.3,1,0.7,1.4,1.3
		s0.6,1.3,0.8,2.1c0.2,0.8,0.3,1.7,0.3,2.7c0,2.1-0.4,3.8-1.1,4.9c-0.8,1.1-1.9,1.7-3.3,1.7c-0.8,0-1.5-0.2-2-0.5
		c-0.6-0.3-1-0.7-1.4-1.3c-0.4-0.6-0.6-1.3-0.8-2.1C373.5,121,373.4,120.1,373.4,119.2z M375.8,119.2c0,0.6,0,1.2,0.1,1.8
		s0.2,1,0.4,1.4c0.2,0.4,0.4,0.7,0.6,0.9c0.3,0.2,0.6,0.3,1,0.3c0.7,0,1.2-0.4,1.6-1.1c0.3-0.7,0.5-1.8,0.5-3.4c0-0.6,0-1.2-0.1-1.7
		c-0.1-0.5-0.2-1-0.4-1.4s-0.4-0.7-0.6-1c-0.3-0.2-0.6-0.4-1-0.4C376.5,114.7,375.8,116.2,375.8,119.2z"/>
	<path class="st0" d="M386.4,119.3l-0.8-2.2h-0.1l0.3,2.2v6.2h-2.1v-12.7h1.7l3.6,6.3l0.8,2.2h0.1l-0.3-2.1v-6.3h2.1v12.7H390
		L386.4,119.3z"/>
</g>
<g>
	<path class="st0" d="M230.7,132.9h2.1v8.2c0,1.6-0.3,2.8-1,3.5c-0.7,0.7-1.6,1.1-2.8,1.1c-1.4,0-2.4-0.4-3-1.1s-1-1.8-1-3.3v-8.5
		h2.3v8.1c0,1,0.1,1.7,0.4,2.1s0.7,0.6,1.3,0.6c0.6,0,1-0.2,1.3-0.6s0.4-1.1,0.4-2V132.9z"/>
	<path class="st0" d="M237.1,139.3l-0.8-2.2h-0.1l0.3,2.2v6.2h-2.1v-12.7h1.7l3.6,6.3l0.8,2.2h0.1l-0.3-2.1v-6.3h2.1v12.7h-1.7
		L237.1,139.3z"/>
	<path class="st0" d="M244.3,132.9h2.3v12.6h-2.3V132.9z"/>
	<path class="st0" d="M251.9,140.3l0.3,2.2h0.1l0.3-2.2l1.8-7.4h2.4l-3.8,12.7h-1.7l-3.9-12.7h2.7L251.9,140.3z"/>
	<path class="st0" d="M257.4,132.9h6.3v2.1h-4v3.1h3.7v2.1h-3.7v3.2h4.1v2.1h-6.4V132.9z"/>
	<path class="st0" d="M265.2,133c0.5-0.1,1-0.2,1.6-0.2c0.6,0,1.1-0.1,1.5-0.1c0.5,0,1,0.1,1.5,0.2c0.5,0.1,0.9,0.3,1.3,0.6
		c0.4,0.3,0.7,0.6,0.9,1.1c0.2,0.5,0.4,1,0.4,1.8c0,1-0.2,1.9-0.6,2.5c-0.4,0.6-0.9,1.1-1.6,1.3l0.7,0.6l2.3,4.8h-2.6l-2.2-5l-1-0.2
		v5.2h-2.3V133z M267.4,138.7h0.8c0.6,0,1-0.2,1.3-0.5c0.3-0.3,0.4-0.9,0.4-1.6c0-0.5-0.1-1-0.4-1.3c-0.2-0.3-0.6-0.5-1.1-0.5
		c-0.2,0-0.4,0-0.6,0c-0.2,0-0.3,0-0.4,0.1V138.7z"/>
	<path class="st0" d="M278.6,142.2c0-0.4-0.1-0.7-0.3-1c-0.2-0.3-0.5-0.5-0.9-0.8c-0.3-0.2-0.7-0.5-1.1-0.7
		c-0.4-0.3-0.8-0.5-1.1-0.9s-0.6-0.7-0.9-1.2c-0.2-0.5-0.3-1-0.3-1.7c0-0.6,0.1-1.1,0.3-1.6c0.2-0.4,0.4-0.8,0.8-1
		c0.3-0.3,0.7-0.5,1.2-0.6c0.4-0.1,0.9-0.2,1.4-0.2c0.6,0,1.2,0.1,1.7,0.2s1,0.3,1.3,0.5l-0.7,2c-0.2-0.1-0.5-0.3-0.9-0.4
		s-0.8-0.2-1.3-0.2c-0.5,0-0.8,0.1-1.1,0.3c-0.3,0.2-0.4,0.5-0.4,0.8c0,0.3,0.1,0.6,0.3,0.9c0.2,0.3,0.5,0.5,0.9,0.7
		c0.3,0.2,0.7,0.5,1.1,0.7s0.8,0.6,1.1,0.9c0.3,0.3,0.6,0.7,0.9,1.2c0.2,0.5,0.3,1,0.3,1.6s-0.1,1.2-0.3,1.7
		c-0.2,0.5-0.5,0.9-0.8,1.2c-0.3,0.3-0.8,0.5-1.2,0.7c-0.5,0.2-1,0.2-1.6,0.2c-0.7,0-1.4-0.1-2-0.2c-0.6-0.1-1-0.3-1.3-0.5l0.7-2
		c0.2,0.1,0.6,0.3,1,0.4c0.4,0.1,0.9,0.2,1.3,0.2C278,143.6,278.6,143.2,278.6,142.2z"/>
	<path class="st0" d="M282.3,132.9h2.3v12.6h-2.3V132.9z"/>
	<path class="st0" d="M294,134.9h-3v10.5h-2.3v-10.5h-3v-2.1h8.2V134.9z"/>
</g>
<g>
	<path class="st0" d="M298.8,142.6h-3l-0.7,2.9h-2.3l3.7-12.7h1.8l3.7,12.7h-2.4L298.8,142.6z M296.3,140.7h2.1l-0.7-2.9l-0.3-2
		h-0.1l-0.3,2L296.3,140.7z"/>
	<path class="st0" d="M303,132.9h2.3v12.6H303V132.9z"/>
	<path class="st0" d="M307,133c0.5-0.1,1-0.2,1.6-0.2c0.6,0,1.1-0.1,1.5-0.1c0.5,0,1,0.1,1.5,0.2c0.5,0.1,0.9,0.3,1.3,0.6
		c0.4,0.3,0.7,0.6,0.9,1.1c0.2,0.5,0.4,1,0.4,1.8c0,1-0.2,1.9-0.6,2.5c-0.4,0.6-0.9,1.1-1.6,1.3l0.7,0.6l2.3,4.8h-2.6l-2.2-5l-1-0.2
		v5.2H307V133z M309.3,138.7h0.8c0.6,0,1-0.2,1.3-0.5c0.3-0.3,0.4-0.9,0.4-1.6c0-0.5-0.1-1-0.4-1.3c-0.2-0.3-0.6-0.5-1.1-0.5
		c-0.2,0-0.4,0-0.6,0c-0.2,0-0.3,0-0.4,0.1V138.7z"/>
	<path class="st0" d="M316.1,132.9h6.3v2.1h-4v3.1h3.7v2.1h-3.7v3.2h4.1v2.1h-6.4V132.9z"/>
	<path class="st0" d="M327.5,132.9h6.3v2.1h-4v3.3h3.7v2.1h-3.7v5.1h-2.3V132.9z"/>
	<path class="st0" d="M335.1,133c0.5-0.1,1-0.2,1.6-0.2c0.6,0,1.1-0.1,1.5-0.1c0.5,0,1,0.1,1.5,0.2c0.5,0.1,0.9,0.3,1.3,0.6
		c0.4,0.3,0.7,0.6,0.9,1.1c0.2,0.5,0.4,1,0.4,1.8c0,1-0.2,1.9-0.6,2.5c-0.4,0.6-0.9,1.1-1.6,1.3l0.7,0.6l2.3,4.8h-2.6l-2.2-5l-1-0.2
		v5.2h-2.3V133z M337.3,138.7h0.8c0.6,0,1-0.2,1.3-0.5c0.3-0.3,0.4-0.9,0.4-1.6c0-0.5-0.1-1-0.4-1.3c-0.2-0.3-0.6-0.5-1.1-0.5
		c-0.2,0-0.4,0-0.6,0c-0.2,0-0.3,0-0.4,0.1V138.7z"/>
</g>
<g>
	<path class="st0" d="M348.6,142.6h-3l-0.7,2.9h-2.3l3.7-12.7h1.8l3.7,12.7h-2.4L348.6,142.6z M346.1,140.7h2.1l-0.7-2.9l-0.3-2
		h-0.1l-0.3,2L346.1,140.7z"/>
	<path class="st0" d="M355.3,139.3l-0.8-2.2h-0.1l0.3,2.2v6.2h-2.1v-12.7h1.7l3.6,6.3l0.8,2.2h0.1l-0.3-2.1v-6.3h2.1v12.7h-1.7
		L355.3,139.3z"/>
	<path class="st0" d="M369.4,145c-0.3,0.3-0.7,0.5-1.3,0.6c-0.5,0.1-1,0.2-1.6,0.2c-0.6,0-1.3-0.1-1.8-0.3c-0.6-0.2-1-0.6-1.5-1.1
		c-0.4-0.5-0.8-1.2-1-2c-0.2-0.8-0.4-1.9-0.4-3.1c0-1.3,0.1-2.3,0.4-3.2c0.3-0.8,0.6-1.5,1.1-2c0.4-0.5,0.9-0.8,1.5-1.1
		c0.6-0.2,1.1-0.3,1.7-0.3c0.6,0,1.1,0,1.5,0.1c0.4,0.1,0.8,0.2,1.1,0.3l-0.4,2c-0.2-0.1-0.5-0.2-0.8-0.3c-0.3-0.1-0.7-0.1-1.1-0.1
		c-0.8,0-1.5,0.4-1.9,1.1c-0.4,0.7-0.7,1.8-0.7,3.4c0,0.7,0.1,1.3,0.2,1.8s0.3,1,0.5,1.4c0.2,0.4,0.5,0.7,0.8,0.9s0.8,0.3,1.2,0.3
		c0.4,0,0.8-0.1,1.1-0.2c0.3-0.1,0.6-0.2,0.8-0.4L369.4,145z"/>
</g>
<g>
	<path class="st0" d="M369.7,139.2c0-2.1,0.4-3.8,1.1-4.9c0.7-1.1,1.8-1.7,3.3-1.7c0.8,0,1.5,0.2,2,0.5c0.6,0.3,1,0.7,1.4,1.3
		s0.6,1.3,0.8,2.1c0.2,0.8,0.3,1.7,0.3,2.7c0,2.1-0.4,3.8-1.1,4.9c-0.8,1.1-1.9,1.7-3.3,1.7c-0.8,0-1.5-0.2-2-0.5
		c-0.6-0.3-1-0.7-1.4-1.3c-0.4-0.6-0.6-1.3-0.8-2.1C369.8,141.1,369.7,140.2,369.7,139.2z M372.1,139.2c0,0.6,0,1.2,0.1,1.8
		s0.2,1,0.4,1.4c0.2,0.4,0.4,0.7,0.6,0.9c0.3,0.2,0.6,0.3,1,0.3c0.7,0,1.2-0.4,1.6-1.1c0.3-0.7,0.5-1.8,0.5-3.4c0-0.6,0-1.2-0.1-1.7
		c-0.1-0.5-0.2-1-0.4-1.4s-0.4-0.7-0.6-1c-0.3-0.2-0.6-0.4-1-0.4C372.8,134.7,372.1,136.2,372.1,139.2z"/>
	<path class="st0" d="M380,139.2h3.7v2.1H380V139.2z"/>
	<path class="st0" d="M392.5,135.8c0,0.3,0,0.6-0.1,0.9c-0.1,0.3-0.2,0.6-0.3,0.9c-0.1,0.3-0.3,0.5-0.6,0.7
		c-0.2,0.2-0.5,0.4-0.8,0.5v0.1c0.3,0.1,0.6,0.2,0.8,0.3s0.5,0.3,0.7,0.6c0.2,0.2,0.3,0.5,0.5,0.9c0.1,0.4,0.2,0.8,0.2,1.3
		c0,0.6-0.1,1.2-0.3,1.7c-0.2,0.5-0.5,0.9-0.9,1.2s-0.8,0.5-1.3,0.7c-0.5,0.1-1,0.2-1.6,0.2c-0.2,0-0.4,0-0.6,0s-0.5,0-0.9,0
		c-0.3,0-0.6,0-0.9-0.1c-0.3,0-0.6-0.1-0.9-0.2v-12.4c0.4-0.1,0.9-0.1,1.5-0.2c0.6-0.1,1.2-0.1,1.7-0.1c0.5,0,1,0,1.5,0.1
		s0.9,0.2,1.3,0.5c0.4,0.2,0.7,0.5,0.9,0.9C392.4,134.6,392.5,135.1,392.5,135.8z M388.1,138.2c0.1,0,0.3,0,0.5,0s0.3,0,0.4-0.1
		c0.3-0.1,0.6-0.3,0.9-0.6s0.4-0.7,0.4-1.2c0-0.3,0-0.6-0.1-0.8s-0.2-0.4-0.3-0.5c-0.1-0.1-0.3-0.2-0.5-0.3
		c-0.2-0.1-0.4-0.1-0.6-0.1c-0.5,0-0.8,0-1,0.1v3.5H388.1z M388.7,143.7c0.5,0,0.9-0.2,1.2-0.5c0.3-0.3,0.5-0.8,0.5-1.4
		c0-0.4-0.1-0.7-0.2-0.9c-0.1-0.2-0.3-0.4-0.4-0.5c-0.2-0.1-0.4-0.2-0.6-0.2c-0.2,0-0.5-0.1-0.7-0.1h-0.9v3.6c0.1,0,0.3,0.1,0.5,0.1
		C388.3,143.7,388.5,143.7,388.7,143.7z"/>
	<path class="st0" d="M399.2,142.6h-3l-0.7,2.9h-2.3l3.7-12.7h1.8l3.7,12.7H400L399.2,142.6z M396.8,140.7h2.1l-0.7-2.9l-0.3-2h-0.1
		l-0.3,2L396.8,140.7z"/>
</g>
<g>
	<path class="st0" d="M405.7,140.3l0.3,2.2h0.1l0.3-2.2l1.8-7.4h2.4l-3.8,12.7H405l-3.9-12.7h2.7L405.7,140.3z"/>
	<path class="st0" d="M415.2,142.6h-3l-0.7,2.9h-2.3l3.7-12.7h1.8l3.7,12.7H416L415.2,142.6z M412.7,140.7h2.1l-0.7-2.9l-0.3-2h-0.1
		l-0.3,2L412.7,140.7z"/>
</g>
<g>
	<path class="st0" d="M419.1,133c0.5-0.1,1-0.2,1.6-0.2c0.6,0,1.1-0.1,1.5-0.1c0.5,0,1,0.1,1.5,0.2c0.5,0.1,0.9,0.3,1.3,0.6
		c0.4,0.3,0.7,0.6,0.9,1.1c0.2,0.5,0.4,1,0.4,1.8c0,1-0.2,1.9-0.6,2.5c-0.4,0.6-0.9,1.1-1.6,1.3l0.7,0.6l2.3,4.8h-2.6l-2.2-5l-1-0.2
		v5.2h-2.3V133z M421.4,138.7h0.8c0.6,0,1-0.2,1.3-0.5c0.3-0.3,0.4-0.9,0.4-1.6c0-0.5-0.1-1-0.4-1.3c-0.2-0.3-0.6-0.5-1.1-0.5
		c-0.2,0-0.4,0-0.6,0c-0.2,0-0.3,0-0.4,0.1V138.7z"/>
</g>
<g>
	<path class="st0" d="M427.4,139.2c0-2.1,0.4-3.8,1.1-4.9c0.7-1.1,1.8-1.7,3.3-1.7c0.8,0,1.5,0.2,2,0.5c0.6,0.3,1,0.7,1.4,1.3
		s0.6,1.3,0.8,2.1c0.2,0.8,0.3,1.7,0.3,2.7c0,2.1-0.4,3.8-1.1,4.9c-0.8,1.1-1.9,1.7-3.3,1.7c-0.8,0-1.5-0.2-2-0.5
		c-0.6-0.3-1-0.7-1.4-1.3c-0.4-0.6-0.6-1.3-0.8-2.1C427.5,141.1,427.4,140.2,427.4,139.2z M429.8,139.2c0,0.6,0,1.2,0.1,1.8
		s0.2,1,0.4,1.4c0.2,0.4,0.4,0.7,0.6,0.9c0.3,0.2,0.6,0.3,1,0.3c0.7,0,1.2-0.4,1.6-1.1c0.3-0.7,0.5-1.8,0.5-3.4c0-0.6,0-1.2-0.1-1.7
		c-0.1-0.5-0.2-1-0.4-1.4s-0.4-0.7-0.6-1c-0.3-0.2-0.6-0.4-1-0.4C430.5,134.7,429.8,136.2,429.8,139.2z"/>
	<path class="st0" d="M437.8,132.9h2.3v12.6h-2.3V132.9z"/>
	<path class="st0" d="M446.3,142.2c0-0.4-0.1-0.7-0.3-1c-0.2-0.3-0.5-0.5-0.9-0.8c-0.3-0.2-0.7-0.5-1.1-0.7
		c-0.4-0.3-0.8-0.5-1.1-0.9s-0.6-0.7-0.9-1.2c-0.2-0.5-0.3-1-0.3-1.7c0-0.6,0.1-1.1,0.3-1.6c0.2-0.4,0.4-0.8,0.8-1
		c0.3-0.3,0.7-0.5,1.2-0.6c0.4-0.1,0.9-0.2,1.4-0.2c0.6,0,1.2,0.1,1.7,0.2s1,0.3,1.3,0.5l-0.7,2c-0.2-0.1-0.5-0.3-0.9-0.4
		s-0.8-0.2-1.3-0.2c-0.5,0-0.8,0.1-1.1,0.3c-0.3,0.2-0.4,0.5-0.4,0.8c0,0.3,0.1,0.6,0.3,0.9c0.2,0.3,0.5,0.5,0.9,0.7
		c0.3,0.2,0.7,0.5,1.1,0.7s0.8,0.6,1.1,0.9c0.3,0.3,0.6,0.7,0.9,1.2c0.2,0.5,0.3,1,0.3,1.6s-0.1,1.2-0.3,1.7
		c-0.2,0.5-0.5,0.9-0.8,1.2c-0.3,0.3-0.8,0.5-1.2,0.7c-0.5,0.2-1,0.2-1.6,0.2c-0.7,0-1.4-0.1-2-0.2c-0.6-0.1-1-0.3-1.3-0.5l0.7-2
		c0.2,0.1,0.6,0.3,1,0.4c0.4,0.1,0.9,0.2,1.3,0.2C445.7,143.6,446.3,143.2,446.3,142.2z"/>
</g>
</svg>
